<svg data-v-423bf9ae="" xmlns="http://www.w3.org/2000/svg" viewBox="0 0 758 91" class="iconLeft"><!----><!----><!----><g data-v-423bf9ae="" id="ec6760ca-e1d6-4aa3-8837-5150d0269264" fill="white" transform="matrix(5.560703884061496,0,0,5.560703884061496,133.50776789631095,-3.6283560507844896)"><path d="M2.60 6.23C2.60 5.74 2.56 5.28 2.56 5.28L2.60 5.28C2.60 5.28 2.76 5.70 2.97 6.15L6.05 12.60L6.31 12.60L9.46 6.38C9.62 6.08 9.90 5.40 9.90 5.40L9.94 5.40C9.94 5.40 9.88 6.09 9.88 6.43L9.88 13.36L8.76 13.57L8.76 14L12.29 14L12.29 13.57L11.17 13.36L11.17 4.82L12.29 4.63L12.29 4.20L9.67 4.20L6.87 9.76C6.64 10.23 6.45 10.68 6.45 10.68L6.43 10.68C6.43 10.68 6.24 10.19 6.03 9.74L3.44 4.20L0.67 4.20L0.67 4.63L1.79 4.82L1.79 13.33L0.67 13.57L0.67 14L3.72 14L3.72 13.57L2.60 13.33ZM17.47 13.17C17.58 13.86 18.05 14.14 18.62 14.14C19.25 14.14 19.68 13.82 19.68 13.82L19.68 13.44L19.25 13.44C18.83 13.44 18.73 13.19 18.73 12.84L18.73 9.48C18.73 7.78 18.09 6.86 16.42 6.86C14.97 6.86 13.87 7.60 13.87 7.60L13.87 8.08C13.87 8.08 14.99 7.76 15.96 7.76C17.23 7.76 17.46 8.34 17.46 9.37L17.46 10.12C17.05 10.12 16.21 10.14 15.55 10.25C14.06 10.51 13.45 11.30 13.45 12.38C13.45 13.31 14.10 14.07 15.25 14.07C16.25 14.07 16.94 13.66 17.47 13.17ZM15.86 13.20C15.11 13.20 14.73 12.78 14.73 12.18C14.73 11.49 15.16 11.06 15.88 10.88C16.69 10.67 17.43 10.68 17.43 10.68L17.43 11.68C17.43 12.28 17.47 12.67 17.47 12.67C17.02 12.94 16.55 13.20 15.86 13.20ZM24.35 7.63C25.10 7.63 25.61 7.97 25.61 7.97L25.61 11.21C25.61 11.90 25.65 12.49 25.66 12.61C25.21 12.91 24.61 13.10 24.11 13.10C22.79 13.10 22.13 11.96 22.13 10.36C22.13 8.69 22.92 7.63 24.35 7.63ZM26.91 3.42L26.63 3.35L24.47 3.56L24.47 3.99L25.61 4.10L25.61 7.24C25.61 7.24 25.10 6.86 24.19 6.86C22.09 6.86 20.78 8.36 20.78 10.88C20.78 12.60 21.81 14.14 23.44 14.14C24.54 14.14 25.13 13.64 25.65 13.17C25.76 13.86 26.22 14.14 26.80 14.14C27.43 14.14 27.86 13.82 27.86 13.82L27.86 13.44L27.43 13.44C27.01 13.44 26.91 13.19 26.91 12.84ZM34.93 10.40C35.13 8.13 34.20 6.86 32.26 6.86C30.49 6.86 29.02 8.30 29.02 10.63C29.02 12.67 30.28 14.14 32.30 14.14C33.75 14.14 34.65 13.41 34.65 13.41L34.65 12.94C34.65 12.94 33.81 13.27 32.86 13.27C31.33 13.27 30.39 12.07 30.35 10.40ZM32.20 7.57C33.40 7.57 33.64 8.55 33.66 9.66L30.38 9.74C30.51 8.41 31.18 7.57 32.20 7.57ZM37.14 13.41L36.02 13.57L36.02 14L39.56 14L39.56 13.57L38.44 13.41L38.44 3.42L38.16 3.35L36.01 3.56L36.01 3.99L37.14 4.13ZM42.24 5.22C42.77 5.22 43.12 4.91 43.12 4.40C43.12 3.93 42.81 3.64 42.31 3.64C41.79 3.64 41.41 3.93 41.41 4.42C41.41 4.90 41.76 5.22 42.24 5.22ZM42.64 6.93L40.49 7.13L40.49 7.56L41.62 7.67L41.62 13.40L40.50 13.57L40.50 14L44.04 14L44.04 13.57L42.92 13.40L42.92 7ZM51.87 9.37C51.87 7.88 51.09 6.86 49.62 6.86C48.73 6.86 47.98 7.34 47.35 7.83L47.40 7L47.12 6.93L44.97 7.14L44.97 7.57L46.10 7.69L46.10 13.41L44.98 13.57L44.98 14L48.38 14L48.38 13.57L47.40 13.41L47.40 9.70C47.40 8.95 47.35 8.37 47.35 8.37C47.35 8.37 48.12 7.90 49.13 7.90C50.13 7.90 50.57 8.53 50.57 9.69L50.57 13.41L49.59 13.57L49.59 14L52.99 14L52.99 13.57L51.87 13.41ZM59.84 10.40C60.03 8.13 59.11 6.86 57.16 6.86C55.40 6.86 53.93 8.30 53.93 10.63C53.93 12.67 55.19 14.14 57.20 14.14C58.66 14.14 59.56 13.41 59.56 13.41L59.56 12.94C59.56 12.94 58.72 13.27 57.76 13.27C56.24 13.27 55.30 12.07 55.26 10.40ZM57.11 7.57C58.31 7.57 58.55 8.55 58.56 9.66L55.29 9.74C55.41 8.41 56.08 7.57 57.11 7.57ZM73.29 13.38L73.29 4.82L74.41 4.63L74.41 4.20L70.80 4.20L70.80 4.63L71.92 4.82L71.92 8.61L66.96 8.61L66.96 4.82L68.08 4.63L68.08 4.20L64.47 4.20L64.47 4.63L65.59 4.82L65.59 13.38L64.47 13.57L64.47 14L68.08 14L68.08 13.57L66.96 13.38L66.96 9.31L71.92 9.31L71.92 13.38L70.80 13.57L70.80 14L74.41 14L74.41 13.57ZM79.58 13.17C79.69 13.86 80.15 14.14 80.72 14.14C81.35 14.14 81.79 13.82 81.79 13.82L81.79 13.44L81.35 13.44C80.93 13.44 80.84 13.19 80.84 12.84L80.84 9.48C80.84 7.78 80.19 6.86 78.53 6.86C77.07 6.86 75.98 7.60 75.98 7.60L75.98 8.08C75.98 8.08 77.10 7.76 78.06 7.76C79.34 7.76 79.56 8.34 79.56 9.37L79.56 10.12C79.16 10.12 78.32 10.14 77.66 10.25C76.16 10.51 75.56 11.30 75.56 12.38C75.56 13.31 76.20 14.07 77.35 14.07C78.36 14.07 79.04 13.66 79.58 13.17ZM77.97 13.20C77.21 13.20 76.83 12.78 76.83 12.18C76.83 11.49 77.27 11.06 77.98 10.88C78.79 10.67 79.53 10.68 79.53 10.68L79.53 11.68C79.53 12.28 79.58 12.67 79.58 12.67C79.13 12.94 78.65 13.20 77.97 13.20ZM85.48 13.41C84.59 13.41 84.10 12.78 83.13 12.66L82.85 13.83C83.44 13.92 84.14 14.14 85.26 14.14C86.51 14.14 87.70 13.51 87.70 12.18C87.70 9.63 84.06 10.19 84.06 8.41C84.06 7.95 84.36 7.59 85.01 7.59C85.85 7.59 86.30 8.22 87.26 8.34L87.54 7.17C86.95 7.08 86.30 6.86 85.41 6.86C84.03 6.86 82.99 7.62 82.99 8.81C82.99 11.33 86.69 10.89 86.69 12.50C86.69 13.03 86.21 13.41 85.48 13.41ZM91.59 13.41C90.69 13.41 90.20 12.78 89.24 12.66L88.96 13.83C89.54 13.92 90.24 14.14 91.36 14.14C92.61 14.14 93.80 13.51 93.80 12.18C93.80 9.63 90.16 10.19 90.16 8.41C90.16 7.95 90.47 7.59 91.11 7.59C91.95 7.59 92.40 8.22 93.37 8.34L93.65 7.17C93.06 7.08 92.40 6.86 91.52 6.86C90.13 6.86 89.10 7.62 89.10 8.81C89.10 11.33 92.79 10.89 92.79 12.50C92.79 13.03 92.32 13.41 91.59 13.41ZM101.05 10.40C101.25 8.13 100.32 6.86 98.38 6.86C96.61 6.86 95.14 8.30 95.14 10.63C95.14 12.67 96.40 14.14 98.42 14.14C99.88 14.14 100.77 13.41 100.77 13.41L100.77 12.94C100.77 12.94 99.93 13.27 98.98 13.27C97.45 13.27 96.52 12.07 96.47 10.40ZM98.32 7.57C99.53 7.57 99.76 8.55 99.78 9.66L96.50 9.74C96.63 8.41 97.30 7.57 98.32 7.57ZM102.21 7.63L103.18 7.64C103.15 7.81 103.12 8.37 103.12 8.78L103.12 11.94C103.12 13.51 103.87 14.14 104.97 14.14C106.06 14.14 106.81 13.52 106.81 13.52L106.81 13.01C106.81 13.01 106.22 13.27 105.49 13.27C104.73 13.27 104.41 12.81 104.41 11.93L104.41 7.66L106.79 7.77L106.79 7L104.41 7L104.43 5.38L104.13 5.38L103.11 7L102.21 7.32ZM107.59 7.63L108.56 7.64C108.53 7.81 108.50 8.37 108.50 8.78L108.50 11.94C108.50 13.51 109.24 14.14 110.35 14.14C111.44 14.14 112.18 13.52 112.18 13.52L112.18 13.01C112.18 13.01 111.59 13.27 110.87 13.27C110.11 13.27 109.79 12.81 109.79 11.93L109.79 7.66L112.17 7.77L112.17 7L109.79 7L109.80 5.38L109.51 5.38L108.49 7L107.59 7.32Z"></path></g><!----><g data-v-423bf9ae="" id="8fdacbaf-0638-4d6b-b145-d83d5150f355" transform="matrix(1.2968300852337564,0,0,1.2968300852337564,-6.011827416044838,-17.125938071517524)" stroke="none" fill="white"><path d="M32.9 17.3c-4.7 2.6-8.1 6.3-10.5 11.3h10.4l.1-11.3zm1-3.4h.5c10.9 0 20.3 5.8 25.6 14.5 1.6 2.6 2.7 5.5 3.4 8.6h22.4c.6 0 1 .3 1 .7v31.5l8.3 12.1c0 .6-.5 2-1.1 2H25.7c-.6 0-1.1-1.4-1.1-2l5.5-8.5c-14.3-2-25.4-14.4-25.4-29.3C4.8 38 6.3 32.6 9 28.3c5.2-8.6 14.3-14.3 24.9-14.4zM84 66.4V40.2c0-.3-.4-.6-.9-.6H36.7c-.5 0-.9.3-.9.6V66.5c0 .4.4.6.9.6H83c.5.1 1-.2 1-.7zM50.7 36.9h10.2c-.5-2.1-1.3-4-2.2-5.8h-9.4c.5 1.9 1.1 3.7 1.4 5.8zm-2.4-8.3h8.9C53.1 22.3 46.5 18 38.8 16.7c4.2 2.9 7.4 7.1 9.5 11.9zm-12.6 8.3h12.4c-.3-2.1-.8-4-1.6-5.8H35.7v5.8zm0-8.3h9.8c-2.2-4.6-5.5-8.3-9.8-11v11zm-2.8 2.5H21.5c-1 2.8-1.7 5.9-1.9 9.2 0 .5-.1 1-.1 1.5h13.4V31.1zm-.2 38V57.4h-9.8c2.3 4.6 5.6 8.7 9.8 11.8v-.1zm0-14.2V44.2H19.5c.2 3.8.9 7.3 2.3 10.6h10.9zM30 70.3c-4.3-3.4-7.6-7.9-9.9-12.9H11c4.1 6.8 11 11.6 19 12.9zM19.7 28.6c2.1-4.7 5.2-8.7 9.2-11.7-7.1 1.5-13.3 5.7-17.1 11.7h7.9zM9.8 54.9h9.4c-1.3-3.3-2-7-2.1-10.6H7.4c0 3.7.8 7.3 2.4 10.6zm8.9-23.8h-8.5C8.6 34.3 7.6 38 7.4 41.7H17c0-.5 0-1.1.1-1.7.1-3.1.7-6.1 1.6-8.9z"></path><path d="M38.9 42.4h41.3v5.8H38.9zM78.6 57.1l-2.4 1.2 1.8 3.5-1.6.8-1.8-3.4-2.3 1.1-.9-9.4zM65.6 58l-.1-.1c.1 0 .1.1.1.1zm.5-7v13H39V51h27.1zm-11.4 7c0-.1.1-.1 0 0 .1-.1 0-.1 0 0z"></path></g><!----></svg>